<?xml version="1.0" encoding="utf-8"?>
<!-- Generator: Adobe Illustrator 15.1.0, SVG Export Plug-In . SVG Version: 6.00 Build 0)  -->
<!DOCTYPE svg PUBLIC "-//W3C//DTD SVG 1.1//EN" "http://www.w3.org/Graphics/SVG/1.1/DTD/svg11.dtd">
<svg version="1.1" id="Layer_1" xmlns="http://www.w3.org/2000/svg" xmlns:xlink="http://www.w3.org/1999/xlink" x="0px" y="0px"
	 width="612px" height="792px" viewBox="0 0 612 792" enable-background="new 0 0 612 792" xml:space="preserve">
<g>
	<path fill="#FEDCC1" d="M492.005,370.549c0.032-1.399,0.022-2.813-0.005-4.264c-1-52.4-17.078-65.738-17-65.818
		c25-25.715,14.585-107.085,1-106.312c-19.436,1.107-57,25.804-64.919,50.225c-27.228-20.44-57.334-34.107-83.581-34.107
		c-4.325,0-8.798,0.348-13.377,1.01c7.862-7.977,6.829-20.314-2.123-10.12c-4.794,5.459-7.288,8.097-9.514,12.43
		c-0.195,0.048-0.39,0.097-0.585,0.146c1.641-5.617,3.413-14.137,1.099-19.409c-3-6.832-6,6.833-13,12.527
		c-2.968,2.414-5.214,7.693-6.82,12.975c-14.504,5.73-29.245,13.793-43.238,23.526C236,212.733,190,183.833,173,190.026
		c-9.288,3.383-30,69.154,8.197,112.162c-18.197,26.146-18.621,45.8-21.197,61.24c-1.786,2.862-13.501,25.634-8,23.355
		c11-4.555,11.651-1.688,6,1.139c-15,7.503,6.761,11.645,14,12.527c6.533,0.797,1.307,1.093,4.826,0.984
		c21.077,22.297,60.085,34.839,99.516,40.608C273.468,447.576,260.266,473.833,258,484c-21.173-7.677-49-35-81-42
		c-55.938-12.236-59.273,0.847-66.913-4.468c-18.588-12.929-5.311-41.372-14.605-31.029
		c-13.346,14.852-34.917,80.787,33.193,126.703c35.482,23.921,70.965-17.722,106.875-20.931c-6.72,7.75-8.55,20.55-8.55,34.725
		c0,21,14,38,11,42s-23-9.203-23,13c0,11,10,11,40,9s170,2,184-4s1.316-22.105-23-14c-6,2,21-17,19-58c-2.081-42.669-37-36-44-20
		c-6.642,15.18,5.615-43.445-11.044-70.845c40.979-3.541,81.579-13.373,100.717-39.091c0.179-0.02,0.344-0.052,0.526-0.061
		c29.801-1.322,17-6.833,14-12.526c-3-5.694-5-5.694,6-1.14C504.278,392.613,498.235,381.279,492.005,370.549z"/>
	<path fill="#F15A29" d="M475.921,300.996c25.123-25.837,14.657-107.594,1.005-106.817c-19.531,1.112-57.281,25.927-65.239,50.464
		c-27.361-20.537-57.616-34.27-83.993-34.27c-4.347,0-8.841,0.35-13.442,1.015c7.9-8.015,6.862-20.411-2.134-10.167
		c-4.817,5.485-7.324,8.135-9.561,12.489c-0.196,0.048-0.392,0.097-0.588,0.147c1.648-5.644,3.43-14.205,1.104-19.501
		c-3.016-6.864-6.03,6.866-13.064,12.587c-2.982,2.425-5.24,7.729-6.854,13.036c-14.575,5.758-29.388,13.859-43.452,23.638
		c-3.96-30.77-50.188-59.807-67.271-53.585c-9.333,3.399-30.147,69.483,8.238,112.694c-16.277,12.874-20.696,53.397-23.312,64.116
		c5.024-4.019,12.059-14.066,19.094-25.119c35.171-55.261,99.488-16.076,116.413,12.326c6.506,10.919,17.182,33.974,29.334,42.595
		c-7.098,1.309-12.092,4.416-12.092,8.044c0,4.236,10.343,12.964,17.093,14.979c-0.257,40.606-48.63,21.034-50.984,21.559
		c0.023,0.003,0.045,0.007,0.068,0.01c-2.889,5.561-16.155,31.942-18.433,42.157c-21.278-7.713-49.242-35.166-81.399-42.199
		c-31.992-6.997-46.858-5.754-55.149-4.369c3.076,4.279,5.908,8.66,6.842,14.056c0.597,3.452-2.292,7.836-6.32,6.318
		c-1.175-0.442-2.397-0.708-3.637-0.912c-0.128,3.812-0.425,7.604-1.097,11.392c-0.637,3.589-4.792,4.266-7.547,3.069
		c-2.967-1.287-5.735-2.967-8.561-4.526c-0.5,5.724-2.178,11.715-7.808,12.604c-2.922,0.461-5.836,0.134-8.764-0.327
		c5.868,18.496,18.827,37.721,43.478,54.336c35.657,24.034,71.314-17.807,107.401-21.03c-6.753,7.786-8.592,20.647-8.592,34.89
		c0,21.1,14.069,38.181,11.054,42.199c-3.015,4.02-23.113-9.247-23.113,13.062c0,11.053,10.049,11.053,40.197,9.043
		c10.189-0.679,33.005-0.67,59.291-0.593c4.6,0.014-20.642-132.565,13.064-137.059c30.147-4.019,10.36,137.13,15.074,137.139
		c44.508,0.081,89.809-0.219,97.478-3.506c14.069-6.029,1.323-22.211-23.113-14.066c-6.029,2.009,21.104-17.081,19.094-58.276
		c-2.091-42.871-37.183-36.171-44.217-20.095c-6.631,15.152,5.479-42.888-10.782-70.638c-6.672-1.171-50.081,14.177-48.19-24.208
		c7.553-1.962,16.766-10.75,16.766-15.007c0-3.519-4.706-6.543-11.465-7.917c11.492-9.233,28.517-35.471,32.755-42.62
		c16.897-28.504,30.607-33.998,48.05-39.556c20.857-6.647,55.271,9.042,73.36,45.214
		C493.005,321.626,475.872,301.046,475.921,300.996z M212.629,260.336c-13.064,0-9.044,7.033-9.044,7.033s4.02,24.114-14.069,16.076
		s-25.583-85.287-7.035-82.39c32.158,5.024,48.237,39.186,49.242,47.223C233.229,260.326,225.693,260.336,212.629,260.336z
		 M463.354,289.475c-18.089,8.038-14.069-16.076-14.069-16.076s4.02-7.033-9.044-7.033c-13.064,0-20.6-0.01-19.094-12.057
		c1.005-8.038,17.084-42.2,49.241-47.224C488.936,204.187,481.442,281.437,463.354,289.475z"/>
	<path d="M350.5,404.111c0,5.031-12.3,16.119-20.5,16.119c-6.561,0-20.5-11.088-20.5-16.119c0-5.032,9.178-9.111,20.5-9.111
		S350.5,399.079,350.5,404.111z"/>
	<path d="M291,585c0,0-18-2-17,12s1,14,1,14l39-1.59c0,0,0-29.41-2-32.41s-16-3-16-3v13L291,585z"/>
	<path d="M363.96,585c0,0,18-2,17,12s-1,14-1,14l-39-1.59c0,0,0-29.41,2-32.41s16-3,16-3v13L363.96,585z"/>
	<path d="M266.228,356.823c-6.557-7.427-17.791-8.218-25.097-1.769c-7.305,6.449-7.914,17.695-1.358,25.121
		c6.558,7.428,17.792,8.22,25.098,1.769C272.175,375.496,272.782,364.249,266.228,356.823z M250,367c-2.761,0-5-2.239-5-5
		s2.239-5,5-5s5,2.239,5,5S252.761,367,250,367z"/>
	<path d="M418.228,353.823c-6.557-7.427-17.791-8.218-25.097-1.769c-7.305,6.449-7.914,17.695-1.358,25.121
		c6.558,7.428,17.792,8.22,25.098,1.769C424.175,372.496,424.782,361.249,418.228,353.823z M402,364c-2.762,0-5-2.239-5-5
		s2.238-5,5-5s5,2.239,5,5S404.762,364,402,364z"/>
</g>
</svg>
