<?xml version="1.0" encoding="utf-8"?>
<!-- Generator: Adobe Illustrator 22.1.0, SVG Export Plug-In . SVG Version: 6.00 Build 0)  -->
<svg version="1.1" id="Layer_1" xmlns="http://www.w3.org/2000/svg" xmlns:xlink="http://www.w3.org/1999/xlink" x="0px" y="0px"
	 viewBox="0 0 106 32" style="enable-background:new 0 0 106 32;" xml:space="preserve">
<style type="text/css">
	.st0{fill:#E55844;}
	.st1{fill:#FFFFFF;}
</style>
<path d="M21.9,15.6l-5.2,5.2V9.2h-1.3v11.6l-5.2-5.2l-0.9,0.9l6.8,6.9l6.8-6.9C22.9,16.5,21.9,15.6,21.9,15.6z"/>
<path d="M16,31C7.7,31,1,24.3,1,16S7.7,1,16,1s15,6.7,15,15S24.3,31,16,31z M16,2.3C8.5,2.3,2.3,8.5,2.3,16S8.5,29.7,16,29.7
	S29.7,23.5,29.7,16S23.5,2.3,16,2.3z"/>
<path class="st0" d="M86,31c-8.3,0-15-6.7-15-15S77.7,1,86,1s15,6.7,15,15S94.3,31,86,31z"/>
<path class="st1" d="M91.9,15.6l-5.2,5.2V9.2h-1.3v11.6l-5.2-5.2l-0.9,0.9l6.8,6.9l6.8-6.9C92.9,16.5,91.9,15.6,91.9,15.6z"/>
<g>
	<path d="M50.9,31c-8.3,0-15-6.7-15-15s6.7-15,15-15s15,6.7,15,15S59.2,31,50.9,31z"/>
	<path class="st1" d="M56.8,15.6l-5.2,5.2V9.2h-1.3v11.6L45,15.6l-0.9,0.9l6.8,6.9l6.8-6.9C57.7,16.5,56.8,15.6,56.8,15.6z"/>
</g>
</svg>
