<?xml version="1.0" encoding="utf-8"?>
<!-- Generator: Adobe Illustrator 21.1.0, SVG Export Plug-In . SVG Version: 6.00 Build 0)  -->
<svg version="1.1" id="Layer_1" xmlns="http://www.w3.org/2000/svg" xmlns:xlink="http://www.w3.org/1999/xlink" x="0px" y="0px"
	 viewBox="0 0 100 130.3" style="enable-background:new 0 0 100 130.3;" xml:space="preserve">
<style type="text/css">
	.st0{fill:#AAB8C2;}
	.st1{fill:#E81C4F;}
	.st2{fill:#19CF86;}
	.st3{fill:#1DA1F2;}
</style>
<g id="Layer_1_1_">
	<path class="st0" d="M12.3,1C9.9,1,8.7,3.3,8.5,3.6C8.3,3.3,7.1,1,4.8,1C2.7,1,1,3,1,5c0,4.9,5.8,10,7.5,10S16,9.9,16,5
		C16,3,14.3,1,12.3,1z"/>
	<path class="st1" d="M62.3,1c-2.3,0-3.6,2.3-3.8,2.6C58.3,3.3,57.1,1,54.8,1C52.7,1,51,3,51,5c0,4.9,5.8,10,7.5,10S66,9.9,66,5
		C66,3,64.3,1,62.3,1z"/>
	<path class="st0" d="M20.9,67.3c-0.1-0.3-0.5-0.5-0.8-0.5H18v-4.7c0-0.7-0.5-1.2-1.2-1.2h-6.7c-0.7,0-1.2,0.5-1.2,1.2
		c0,0.7,0.5,1.2,1.2,1.2h5.3c0.1,0,0.3,0.1,0.3,0.3v3.2h-2.1c-0.3,0-0.7,0.2-0.8,0.5s-0.1,0.7,0.1,0.9l3.2,4.4
		c0.1,0.2,0.4,0.3,0.7,0.3c0.3,0,0.5-0.1,0.7-0.3l3.2-4.4C21,68,21,67.6,20.9,67.3z M11.9,70.7H6.6c-0.1,0-0.3-0.1-0.3-0.3v-3.2h2.1
		c0.3,0,0.7-0.2,0.8-0.5s0.1-0.7-0.1-0.9l-3.2-4.4c-0.2-0.3-0.5-0.4-0.8-0.4c-0.3,0-0.5,0.1-0.7,0.3l-3.2,4.4
		c-0.2,0.3-0.2,0.6-0.1,1c0.1,0.3,0.5,0.5,0.8,0.5H4v4.7C4,72.5,4.5,73,5.2,73H12c0.7,0,1.2-0.5,1.2-1.2
		C13.1,71.1,12.5,70.7,11.9,70.7z"/>
	<path class="st2" d="M70.9,67.3c-0.1-0.3-0.5-0.5-0.8-0.5H68v-4.6c0-0.7-0.5-1.2-1.2-1.2h-6.7c-0.7,0-1.2,0.5-1.2,1.2
		s0.5,1.2,1.2,1.2h5.3c0.1,0,0.3,0.1,0.3,0.3v3.1h-2.1c-0.3,0-0.7,0.2-0.8,0.5c-0.1,0.3-0.1,0.7,0.1,0.9l3.2,4.3
		c0.1,0.2,0.4,0.3,0.7,0.3c0.3,0,0.5-0.1,0.7-0.3l3.2-4.3C71,68,71,67.6,70.9,67.3z M61.9,70.6h-5.3c-0.1,0-0.3-0.1-0.3-0.3v-3.1
		h2.1c0.3,0,0.7-0.2,0.8-0.5s0.1-0.7-0.1-0.9l-3.2-4.3c-0.2-0.3-0.5-0.4-0.8-0.4s-0.5,0.1-0.7,0.3l-3.2,4.3c-0.2,0.3-0.2,0.6-0.1,1
		c0.1,0.3,0.5,0.5,0.8,0.5H54v4.6c0,0.7,0.5,1.2,1.2,1.2H62c0.7,0,1.2-0.5,1.2-1.2C63.1,71,62.5,70.6,61.9,70.6z"/>
	<path class="st3" d="M10.3,116c11.4,0,17.6-9.6,17.6-17.9v-0.8c1.2-0.9,2.3-2,3-3.3c-1.2,0.5-2.4,0.8-3.5,1c1.3-0.8,2.3-2,2.7-3.5
		c-1.2,0.7-2.5,1.3-3.9,1.5c-2.4-2.5-6.3-2.7-8.7-0.3c-1.6,1.5-2.3,3.8-1.8,6c-5-0.3-9.6-2.7-12.7-6.6c-1.7,2.9-0.8,6.6,2,8.4
		c-1,0-2-0.3-2.8-0.8v0.1c0,3,2.1,5.6,5,6.2c-0.9,0.3-1.9,0.3-2.8,0.1c0.8,2.6,3.1,4.3,5.8,4.4c-2.2,1.8-4.9,2.7-7.6,2.7
		c-0.5,0-1,0-1.5-0.1C3.6,115,6.9,116,10.3,116"/>
</g>
<path id="Layer_2" class="st0" d="M12.3,35.7H9.5V32c0-0.3-0.2-0.7-0.5-0.9C8.6,31,8.2,31,8,31.2l-6.6,5.1C1.1,36.4,1,36.7,1,37
	c0,0.3,0.1,0.6,0.4,0.7L8,42.8C8.2,42.9,8.4,43,8.6,43c0.1,0,0.3,0,0.4-0.1c0.3-0.1,0.5-0.5,0.5-0.9v-3.8h2.9c1.7,0,3.1,1.4,3.1,3.1
	c0,0.7,0.5,1.3,1.3,1.3c0.8,0,1.3-0.5,1.3-1.3C17.9,38.3,15.4,35.7,12.3,35.7z"/>
</svg>
